<svg version="1.2" xmlns="http://www.w3.org/2000/svg" viewBox="0 0 512 512" width="800" height="800">
	<title>SNIPutih</title>
	<style>
		.s0 { fill: #ffffff } 
	</style>
	<g id="Folder 1">
		<path id="S  I" class="s0" d="m203.4 678q-94.3 0-139.1-47.6-44.5-47.5-47.2-158.7l131.9-17.2q0 31.4 3.5 52.9 3.4 21.4 9.9 32.9 6.5 11.2 13.8 15.8 7.7 4.6 17.7 4.6 26 0 26-37.6 0-36.8-16.8-63.3-16.5-26.4-53.3-57.9l-40.3-34.1q-21.8-18.8-36-33.3-13.8-14.6-28.4-35.7-14.2-21.5-21.1-47.1-6.9-25.7-6.9-57.2 0-82.4 49.5-126.9 49.8-44.8 137.2-45.2 156.4 0 157.6 185.5l-135 13.5q0-25-0.7-37.2-0.4-12.7-3.1-25.7-2.7-13.4-8.8-18.4-5.8-5.4-15.7-5.4-14.2 0.4-21.5 15-7.3 14.5-7.3 29.5 0 8 1.2 15.7 1.5 7.7 2.7 13.8 1.1 5.8 4.9 13 3.9 6.9 5.8 11.2 1.9 4.2 7.7 11.1 5.7 6.9 7.6 9.6 1.9 2.7 9.2 9.6 7.3 6.9 8.8 8.4 1.6 1.1 10 8.8 8.4 7.3 9.2 8.1l36.8 32.5q23.4 21.1 39.5 39.5 16.5 18.4 31.4 42.6 15 23.8 22.3 52.1 7.6 28 7.6 60.6 0 68.6-47.1 115.4-46.8 46.8-123.5 46.8zm809-10h-155.3v-635.6h155.3z"/>
		<path id="N" class="s0" d="m570.4 30h-133.4v635.6h110.4l116.1-272.2v272.2h128.5v-635.6h-106.2l-115.4 299z"/>
	</g>
	<g id="Folder 1 copy">
	</g>
</svg>
